<?xml version="1.0" encoding="utf-8"?>
<!-- Generator: Adobe Illustrator 23.0.0, SVG Export Plug-In . SVG Version: 6.00 Build 0)  -->
<svg version="1.1" id="Layer_1" xmlns="http://www.w3.org/2000/svg" xmlns:xlink="http://www.w3.org/1999/xlink" x="0px" y="0px"
	 viewBox="0 0 7.8 11.8" style="enable-background:new 0 0 7.8 11.8;" xml:space="preserve">
<style type="text/css">
	.st0{opacity:0.5;fill:#E6E7E8;enable-background:new    ;}
	.st1{fill:#FCFDFD;}
	.st2{fill:#002571;}
	.st3{display:none;fill:#EDCB9A;}
	.st4{display:none;fill-rule:evenodd;clip-rule:evenodd;fill:#EDCB9A;}
	.st5{fill-rule:evenodd;clip-rule:evenodd;fill:#002571;}
</style>
<title>pin</title>
<ellipse class="st0" cx="3.9" cy="11.6" rx="1.8" ry="0.2"/>
<path class="st1" d="M3.9,0.6C2.1,0.6,0.7,2,0.7,3.8c0,0.6,0.2,1.2,0.5,1.7l0,0c0,0.1,0.1,0.1,0.1,0.2l0,0l1.4,2.1l1.1,1.7L5,7.8
	l1.4-2c0.1-0.1,0.1-0.1,0.2-0.2l0,0C7,5,7.1,4.4,7.1,3.8C7.1,2,5.7,0.6,3.9,0.6z"/>
<path class="st2" d="M3.9,0C1.7,0,0,1.7,0,3.9C0,4.6,0.2,5.4,0.6,6l0,0c0.1,0.1,0.1,0.2,0.2,0.2l1.3,1.9l1.8,2.7l1.8-2.7L7,6.3
	C7.1,6.2,7.1,6.1,7.2,6l0,0l0,0c0.4-0.6,0.6-1.3,0.6-2.1C7.8,1.7,6.1,0,3.9,0z M6.5,5.5L6.5,5.5C6.4,5.6,6.4,5.7,6.3,5.8L5,7.7
	L3.9,9.3L2.8,7.7L1.5,5.8l0,0c0-0.1-0.1-0.1-0.1-0.2l0,0C1,5.1,0.8,4.5,0.8,3.9c0-1.7,1.4-3.1,3.1-3.1C5.6,0.8,7,2.2,7,3.9
	C7,4.5,6.8,5,6.5,5.5z"/>
<path class="st3" d="M4.2,5.2V4.4H3.4v0.8H2.9v-2h0.5V4h0.8V3.2h0.5v2L4.2,5.2z"/>
<path class="st3" d="M3.2,6L3.2,6c0-0.1-0.1-0.1-0.1-0.2C3.1,5.7,3,5.7,2.9,5.7c0,0.1,0,0.1,0.1,0.2C3,5.9,3.1,5.9,3.2,6
	c-0.2,0-0.2,0-0.3-0.1c-0.1,0-0.1,0-0.2,0.1C2.8,6,2.9,6.1,3,6.1C3.1,6.1,3.2,6,3.2,6z"/>
<path class="st3" d="M2.8,5.8L2.8,5.8c0-0.1,0-0.1,0-0.2c0-0.1-0.1-0.1-0.2-0.2c0,0.1,0,0.1,0,0.2C2.6,5.7,2.7,5.7,2.8,5.8
	C2.7,5.7,2.6,5.7,2.6,5.7c-0.1,0-0.1,0-0.2,0c0.1,0.1,0.2,0.1,0.3,0.1C2.7,5.9,2.8,5.9,2.8,5.8L2.8,5.8z"/>
<path class="st3" d="M2.5,5.6L2.5,5.6c0-0.1,0-0.1,0-0.2c0-0.1-0.1-0.1-0.1-0.2c0,0.1-0.1,0.1,0,0.2C2.3,5.4,2.4,5.5,2.5,5.6
	C2.4,5.5,2.3,5.4,2.3,5.4c-0.1,0-0.1,0-0.2,0c0.1,0.1,0.1,0.2,0.2,0.2C2.3,5.6,2.4,5.6,2.5,5.6z"/>
<path class="st3" d="M2.2,5.3L2.2,5.3c0-0.1,0-0.1,0-0.2c0-0.1,0-0.2-0.1-0.2c0,0-0.1,0.1-0.1,0.2C2.1,5.1,2.1,5.2,2.2,5.3
	C2.1,5.2,2.1,5.1,2,5.1C2,5,1.9,5,1.9,5C1.9,5.1,2,5.2,2,5.2C2.1,5.3,2.1,5.3,2.2,5.3z"/>
<path class="st3" d="M2,4.9L2,4.9c0,0,0.1-0.1,0.1-0.2c0-0.1,0-0.2,0-0.2C2,4.5,2,4.6,2,4.7C2,4.7,2,4.8,2,4.9
	C2,4.8,1.9,4.7,1.9,4.7c0-0.1-0.1-0.1-0.2-0.1c0,0.1,0.1,0.2,0.1,0.3C1.9,4.9,2,4.9,2,4.9z"/>
<path class="st3" d="M1.9,4.6L1.9,4.6C2,4.5,2,4.5,2,4.4c0-0.1,0-0.2,0-0.2C2,4.2,1.9,4.2,1.9,4.3C1.9,4.4,1.9,4.4,1.9,4.6
	c0-0.1,0-0.2-0.1-0.3c0-0.1-0.1-0.1-0.1-0.1c0,0.1,0,0.2,0.1,0.3C1.8,4.5,1.8,4.6,1.9,4.6z"/>
<path class="st3" d="M1.9,4.2L1.9,4.2C1.9,4.1,2,4.1,2,4C2,4,2.1,3.9,2.1,3.8C2,3.8,2,3.9,1.9,3.9C1.9,4,1.9,4,1.9,4.2
	c0-0.1,0-0.2,0-0.3c0-0.1-0.1-0.1-0.1-0.2c0,0.1,0,0.2,0,0.3C1.8,4.1,1.8,4.1,1.9,4.2z"/>
<path class="st3" d="M1.9,3.8L1.9,3.8c0.1,0,0.1,0,0.2-0.1c0.1-0.1,0.1-0.1,0.1-0.2C2.1,3.5,2,3.5,2,3.5C2,3.6,1.9,3.6,1.9,3.8
	c0-0.1,0-0.2,0-0.3c0-0.1,0-0.1-0.1-0.2c0,0.1-0.1,0.2-0.1,0.3C1.8,3.7,1.9,3.7,1.9,3.8z"/>
<path class="st3" d="M2,3.4L2,3.4c0.1,0,0.1,0,0.2-0.1c0.1-0.1,0.1-0.1,0.2-0.2c-0.1,0-0.1,0-0.2,0C2.1,3.2,2.1,3.3,2,3.4
	c0.1-0.1,0.1-0.2,0.1-0.3c0-0.1,0-0.1,0-0.2C2,3,2,3.1,1.9,3.2C1.9,3.3,2,3.3,2,3.4L2,3.4z"/>
<path class="st3" d="M2.2,3L2.2,3c0.1,0,0.1,0,0.2,0c0.1,0,0.1-0.1,0.2-0.1c-0.1,0-0.1,0-0.2,0C2.3,2.9,2.3,2.9,2.2,3
	c0.1-0.1,0.1-0.2,0.1-0.2c0-0.1,0-0.1,0-0.2C2.3,2.7,2.2,2.8,2.2,2.8C2.2,2.9,2.2,3,2.2,3L2.2,3z"/>
<path class="st3" d="M2.5,2.7L2.5,2.7c0.1,0,0.1,0,0.2,0c0.1,0,0.2-0.1,0.2-0.1c-0.1,0-0.1-0.1-0.2-0.1C2.6,2.6,2.6,2.7,2.5,2.7
	c0.1-0.1,0.2-0.1,0.2-0.2c0-0.1,0.1-0.1,0.1-0.2c-0.1,0-0.2,0.1-0.2,0.2C2.5,2.6,2.4,2.7,2.5,2.7L2.5,2.7z"/>
<path class="st3" d="M4.4,6L4.4,6c0-0.1,0.1-0.1,0.1-0.2c0.1-0.1,0.1-0.1,0.2-0.1c0,0.1,0,0.1-0.1,0.2C4.6,5.9,4.6,5.9,4.4,6
	c0.2,0,0.2,0,0.3-0.1c0.1,0,0.1,0,0.2,0.1C4.8,6,4.7,6,4.6,6C4.5,6,4.5,6,4.4,6z"/>
<path class="st3" d="M4.8,5.8L4.8,5.8c0-0.1,0-0.1,0-0.2c0-0.1,0.1-0.1,0.2-0.2c0,0.1,0,0.1,0,0.2C5,5.7,5,5.7,4.8,5.8
	C5,5.7,5,5.7,5.1,5.7c0.1,0,0.1,0,0.2,0C5.2,5.8,5.1,5.8,5,5.9C5,5.9,4.9,5.9,4.8,5.8L4.8,5.8z"/>
<path class="st3" d="M5.2,5.6L5.2,5.6c0-0.1,0-0.1,0-0.2c0-0.1,0.1-0.1,0.1-0.2c0,0.1,0.1,0.1,0,0.2C5.3,5.4,5.3,5.5,5.2,5.6
	c0.1-0.1,0.2-0.1,0.2-0.2c0.1,0,0.1,0,0.2,0C5.6,5.5,5.5,5.5,5.4,5.6C5.3,5.6,5.2,5.6,5.2,5.6z"/>
<path class="st3" d="M5.4,5.3L5.4,5.3c0-0.1,0-0.1,0-0.2c0-0.1,0-0.2,0.1-0.2C5.5,4.9,5.5,5,5.5,5C5.5,5.1,5.5,5.2,5.4,5.3
	c0.1-0.1,0.1-0.2,0.2-0.2C5.7,5,5.7,5,5.8,5c0,0.1-0.1,0.2-0.2,0.2C5.6,5.3,5.5,5.3,5.4,5.3z"/>
<path class="st3" d="M5.6,4.9L5.6,4.9c0,0-0.1-0.1-0.1-0.2c0-0.1,0-0.2,0-0.2c0.1,0,0.1,0.1,0.1,0.2C5.7,4.7,5.7,4.8,5.6,4.9
	c0.1-0.1,0.1-0.2,0.1-0.2c0-0.1,0.1-0.1,0.2-0.1c0,0.1-0.1,0.2-0.1,0.3C5.8,4.9,5.7,4.9,5.6,4.9z"/>
<path class="st3" d="M5.7,4.6L5.7,4.6c-0.1,0-0.1-0.1-0.1-0.2c0-0.1,0-0.2,0-0.2c0.1,0,0.1,0.1,0.1,0.1C5.8,4.4,5.8,4.4,5.7,4.6
	c0-0.1,0-0.2,0.1-0.3c0-0.1,0.1-0.1,0.1-0.1c0,0.1,0,0.2-0.1,0.3C5.9,4.5,5.8,4.6,5.7,4.6z"/>
<path class="st3" d="M5.8,4.2L5.8,4.2C5.7,4.1,5.7,4.1,5.6,4c0-0.1-0.1-0.2-0.1-0.2c0.1,0,0.1,0,0.2,0.1C5.8,4,5.8,4,5.8,4.2
	c0-0.1,0-0.2,0-0.3c0-0.1,0.1-0.1,0.1-0.2c0,0.1,0,0.2,0,0.3C5.9,4.1,5.9,4.1,5.8,4.2z"/>
<path class="st3" d="M5.7,3.8L5.7,3.8c-0.1,0-0.1,0-0.2-0.1C5.5,3.6,5.5,3.5,5.5,3.5c0.1,0,0.1,0,0.2,0.1C5.7,3.6,5.7,3.6,5.7,3.8
	c0-0.1,0-0.2,0-0.3c0-0.1,0-0.1,0.1-0.2c0,0.1,0.1,0.2,0.1,0.3C5.9,3.7,5.8,3.7,5.7,3.8z"/>
<path class="st3" d="M5.6,3.4L5.6,3.4c-0.1,0-0.1,0-0.2-0.1C5.4,3.3,5.3,3.2,5.3,3.1c0.1,0,0.1,0,0.2,0C5.5,3.2,5.6,3.3,5.6,3.4
	C5.6,3.3,5.6,3.2,5.6,3.1c0-0.1,0-0.1,0-0.2C5.7,3,5.7,3.1,5.7,3.2C5.7,3.3,5.7,3.3,5.6,3.4L5.6,3.4z"/>
<path class="st3" d="M5.4,3L5.4,3c-0.1,0-0.1,0-0.2,0C5.2,3,5.1,2.9,5.1,2.9c0.1,0,0.1,0,0.2,0C5.3,2.9,5.4,2.9,5.4,3
	C5.4,2.9,5.3,2.9,5.3,2.8c0-0.1,0-0.1,0-0.2c0.1,0.1,0.1,0.1,0.2,0.2C5.5,2.9,5.5,3,5.4,3L5.4,3z"/>
<path class="st3" d="M5.2,2.7L5.2,2.7c-0.1,0-0.1,0-0.2,0c-0.1,0-0.2-0.1-0.2-0.1c0.1,0,0.1-0.1,0.2-0.1C5,2.6,5.1,2.7,5.2,2.7
	C5.1,2.6,5,2.6,5,2.5c0-0.1-0.1-0.1-0.1-0.2c0.1,0,0.2,0.1,0.2,0.2C5.2,2.6,5.2,2.7,5.2,2.7L5.2,2.7z"/>
<polygon class="st4" points="3.8,2.1 3.9,2.2 4,2.2 3.9,2.3 3.9,2.4 3.8,2.3 3.7,2.4 3.8,2.3 3.6,2.2 3.8,2.2 3.8,2.1 "/>
<polygon class="st4" points="3.5,2.2 3.5,2.3 3.6,2.3 3.5,2.4 3.6,2.5 3.5,2.4 3.4,2.5 3.4,2.4 3.3,2.3 3.4,2.3 3.5,2.2 "/>
<polygon class="st4" points="4.2,2.2 4.2,2.3 4.4,2.3 4.3,2.4 4.3,2.5 4.2,2.4 4.1,2.5 4.1,2.4 4,2.3 4.2,2.3 4.2,2.2 "/>
<polygon class="st4" points="3.1,2.4 3.1,2.5 3.2,2.5 3.2,2.5 3.2,2.6 3.1,2.5 3,2.6 3.1,2.5 3,2.5 3.1,2.5 3.1,2.4 "/>
<polygon class="st4" points="4.5,2.4 4.6,2.5 4.7,2.5 4.6,2.5 4.6,2.6 4.5,2.5 4.5,2.6 4.5,2.5 4.4,2.5 4.5,2.5 4.5,2.4 "/>
<polygon class="st4" points="3.8,5.9 3.9,6 4,6 3.9,6.1 3.9,6.2 3.8,6.1 3.7,6.2 3.8,6.1 3.7,6 3.8,6 3.8,5.9 "/>
<path class="st5" d="M5.9,3.1C5.8,3.5,5.7,3.9,5.5,4.5C5.3,5.2,5,5.6,4.8,5.6c-0.2,0-0.3-0.1-0.3-0.1c-0.1,0-0.1-0.1-0.2-0.2
	L3.6,2.4c0-0.2,0-0.3,0.2-0.4c0.2,0,0.3,0.1,0.4,0.2L4.8,5c0,0,0,0,0,0c0.2-0.1,0.7-1.5,0.5-2.2s-0.7-0.2-0.8,0
	c-0.1,0.2-0.2,0-0.2,0s0.1-0.5,0.8-0.8C5.8,1.8,6,2.6,5.9,3.1z M3.9,5.6c-0.2,0-0.3-0.1-0.4-0.2L2.8,2.6c0,0,0,0,0,0
	C2.5,2.7,2,4.1,2.3,4.8c0.3,0.7,0.7,0.2,0.8,0c0.1-0.2,0.2,0,0.2,0S3.2,5.3,2.5,5.5C1.8,5.8,1.6,5,1.7,4.5c0.1-0.4,0.2-0.9,0.4-1.5
	c0.2-0.7,0.6-1,0.7-1.1C3,2,3.1,2.1,3.1,2.1c0.1,0,0.1,0.1,0.2,0.2l0.8,2.9C4.1,5.4,4,5.5,3.9,5.6z"/>
</svg>
